<?xml version="1.0" standalone="no"?>
<!DOCTYPE svg PUBLIC "-//W3C//DTD SVG 20010904//EN"
 "http://www.w3.org/TR/2001/REC-SVG-20010904/DTD/svg10.dtd">
<svg version="1.0" xmlns="http://www.w3.org/2000/svg"
 width="2048.000000pt" height="2731.000000pt" viewBox="0 0 2048.000000 2731.000000"
 preserveAspectRatio="xMidYMid meet">
<metadata>
Created by potrace 1.15, written by Peter Selinger 2001-2017
</metadata>
<g transform="translate(0.000000,2731.000000) scale(0.100000,-0.100000)"
fill="#000000" stroke="none">
<path d="M7030 15765 l0 -3215 3210 0 3210 0 0 3215 0 3215 -3210 0 -3210 0 0
-3215z m6400 0 l0 -3185 -3190 0 -3190 0 0 3185 0 3185 3190 0 3190 0 0 -3185z"/>
<path d="M7750 15785 l0 -2485 2490 0 2490 0 0 2485 0 2485 -2490 0 -2490 0 0
-2485z m4900 0 l0 -2405 -2410 0 -2410 0 0 2405 0 2405 2410 0 2410 0 0 -2405z"/>
<path d="M8820 16975 l0 -235 325 0 325 0 0 -788 c0 -434 3 -958 7 -1165 l6
-377 269 0 268 0 0 530 c0 292 3 530 8 530 4 -1 198 -239 432 -530 l425 -529
362 -1 363 0 -412 488 c-227 268 -463 547 -526 621 l-114 134 50 51 c113 118
918 982 926 994 6 9 -64 12 -336 12 l-343 0 -408 -465 c-225 -256 -413 -465
-418 -465 -5 0 -9 197 -9 480 l0 480 325 0 325 0 0 235 0 235 -925 0 -925 0 0
-235z"/>
<path d="M7980 11600 l0 -290 50 0 c44 0 50 3 50 21 l0 20 30 -21 c36 -26 101
-30 148 -11 106 44 123 285 27 370 -30 26 -44 31 -88 31 -31 0 -61 -6 -73 -15
-10 -8 -22 -15 -26 -15 -5 0 -8 45 -8 100 l0 100 -55 0 -55 0 0 -290z m214 29
c35 -16 49 -58 44 -135 -5 -75 -27 -104 -79 -104 -53 0 -69 29 -69 123 0 87 3
97 35 115 26 15 38 15 69 1z"/>
<path d="M11460 11600 l0 -290 55 0 55 0 0 290 0 290 -55 0 -55 0 0 -290z"/>
<path d="M6501 11843 c0 -10 26 -133 57 -273 l58 -255 56 -3 56 -3 45 183 c25
101 47 176 50 168 3 -8 19 -73 37 -145 55 -229 42 -205 105 -205 42 0 55 4 59
18 8 25 116 515 116 524 0 4 -24 8 -54 8 l-53 0 -32 -172 c-18 -95 -36 -182
-40 -192 -5 -13 -21 44 -51 173 l-44 191 -47 0 -47 0 -22 -92 c-11 -51 -30
-135 -42 -185 -12 -51 -24 -93 -27 -93 -4 0 -22 83 -40 185 l-35 185 -53 0
c-44 0 -53 -3 -52 -17z"/>
<path d="M8990 11585 l0 -277 123 4 c111 3 127 6 168 30 75 44 113 107 124
205 14 123 -31 226 -123 280 -42 25 -57 28 -169 31 l-123 4 0 -277z m237 165
c49 -30 66 -72 66 -165 0 -128 -45 -185 -145 -185 l-48 0 0 185 0 185 48 0
c29 0 59 -7 79 -20z"/>
<path d="M7460 11702 c-115 -58 -136 -262 -35 -351 67 -58 190 -60 263 -4 l34
25 -27 28 -26 27 -37 -18 c-54 -28 -98 -25 -133 10 -55 55 -45 61 102 61 l132
0 -7 63 c-9 77 -43 139 -90 161 -45 21 -132 21 -176 -2z"/>
<path d="M9760 11702 c-115 -58 -136 -262 -35 -351 67 -58 190 -60 263 -4 l34
25 -27 28 -26 27 -37 -18 c-54 -28 -98 -25 -133 10 -55 55 -45 61 102 61 l132
0 -7 62 c-8 76 -43 139 -90 162 -45 21 -132 21 -176 -2z"/>
<path d="M10240 11713 c0 -5 30 -97 66 -205 l67 -198 51 0 51 0 68 198 c37
108 67 200 67 205 0 4 -24 7 -54 7 l-54 0 -37 -135 c-21 -74 -39 -135 -40
-135 -1 0 -19 61 -40 135 l-37 135 -54 0 c-30 0 -54 -3 -54 -7z"/>
<path d="M10930 11702 c-57 -28 -93 -91 -98 -168 -8 -120 46 -201 148 -223 64
-14 131 0 178 36 l34 25 -27 28 -26 27 -37 -18 c-54 -28 -98 -25 -133 10 -55
55 -45 61 102 61 l132 0 -7 62 c-8 76 -43 139 -90 162 -45 21 -132 21 -176 -2z"/>
<path d="M11935 11708 c-36 -19 -67 -52 -87 -92 -30 -59 -23 -177 14 -233 62
-94 217 -105 295 -21 91 97 60 297 -54 344 -39 17 -140 18 -168 2z m143 -104
c18 -20 22 -37 22 -89 0 -54 -4 -68 -26 -94 -72 -86 -169 20 -134 148 19 71
89 89 138 35z"/>
<path d="M12460 11435 l0 -285 55 0 55 0 0 96 0 96 23 -14 c57 -38 133 -29
181 20 77 81 72 269 -9 341 -30 26 -44 31 -88 31 -29 -1 -63 -7 -77 -15 -32
-18 -40 -18 -40 0 0 11 -12 15 -50 15 l-50 0 0 -285z m225 182 c45 -38 47
-165 4 -208 -24 -24 -70 -25 -98 -1 -20 16 -22 25 -19 112 3 89 4 95 28 107
36 18 55 16 85 -10z"/>
<path d="M13170 11702 c-57 -28 -93 -91 -98 -168 -8 -120 46 -201 148 -223 64
-14 131 0 178 36 l34 25 -27 28 -26 27 -37 -18 c-54 -28 -98 -25 -133 10 -55
55 -45 61 102 61 l132 0 -7 62 c-8 76 -43 139 -90 162 -45 21 -132 21 -176 -2z"/>
<path d="M13690 11515 l0 -205 55 0 55 0 0 133 c0 156 5 167 73 174 l47 6 0
48 c0 49 0 49 -34 49 -18 0 -45 -9 -59 -20 l-26 -20 -6 20 c-5 16 -15 20 -56
20 l-49 0 0 -205z"/>
</g>
</svg>
