<?xml version="1.0" standalone="no"?>
<!DOCTYPE svg PUBLIC "-//W3C//DTD SVG 20010904//EN"
 "http://www.w3.org/TR/2001/REC-SVG-20010904/DTD/svg10.dtd">
<svg version="1.0" xmlns="http://www.w3.org/2000/svg"
 width="2048.000000pt" height="2731.000000pt" viewBox="0 0 2048.000000 2731.000000"
 preserveAspectRatio="xMidYMid meet">
<metadata>
Created by potrace 1.15, written by Peter Selinger 2001-2017
</metadata>
<g transform="translate(0.000000,2731.000000) scale(0.100000,-0.100000)"
fill="#000000" stroke="none">
<path d="M8220 15445 l-2015 -2015 2018 -2018 2017 -2017 2017 2017 2018 2018
-2015 2015 c-1108 1108 -2017 2015 -2020 2015 -3 0 -912 -907 -2020 -2015z
m4020 -20 l1995 -1995 -1998 -1998 -1997 -1997 -1997 1997 -1998 1998 1995
1995 c1097 1097 1997 1995 2000 1995 3 0 903 -898 2000 -1995z"/>
<path d="M8640 15035 l-1595 -1595 1598 -1598 1597 -1597 1597 1597 1598 1598
-1595 1595 c-877 877 -1597 1595 -1600 1595 -3 0 -723 -718 -1600 -1595z
m3145 -55 l1540 -1540 -1543 -1543 -1542 -1542 -1542 1542 -1543 1543 1540
1540 c847 847 1542 1540 1545 1540 3 0 698 -693 1545 -1540z"/>
<path d="M9020 14515 l0 -175 345 0 345 0 0 -1130 0 -1130 220 0 220 0 0 335
0 335 116 127 c64 71 120 129 123 131 4 1 133 -207 287 -463 l279 -464 258 -1
c141 0 257 2 257 5 0 3 -177 288 -394 634 l-394 630 379 498 379 498 -262 3
c-240 2 -264 1 -279 -15 -9 -10 -147 -198 -306 -418 -347 -480 -425 -585 -435
-585 -5 0 -7 226 -6 503 l3 502 353 3 352 2 0 175 0 175 -920 0 -920 0 0 -175z"/>
<path d="M7910 8770 c0 -5 0 -104 0 -220 0 -115 0 -214 0 -220 0 -5 16 -10 35
-10 25 0 35 4 35 16 0 14 2 14 22 0 36 -25 110 -21 142 9 35 32 46 65 46 136
0 65 -16 114 -47 142 -30 26 -85 32 -122 14 l-31 -15 0 79 0 79 -40 0 c-22 0
-40 -4 -40 -10z m180 -205 c15 -18 25 -95 16 -129 -13 -52 -67 -74 -100 -40
-20 19 -23 153 -4 172 17 17 73 15 88 -3z"/>
<path d="M11330 8745 l0 -35 50 0 50 0 0 -160 0 -160 -50 0 -50 0 0 -35 0 -35
135 0 135 0 0 35 c0 35 0 35 -45 35 l-45 0 0 195 0 195 -90 0 -90 0 0 -35z"/>
<path d="M6740 8752 c0 -14 50 -375 56 -405 5 -25 9 -28 42 -25 l36 3 18 114
c9 62 19 115 21 118 3 2 13 -50 23 -116 l19 -121 37 0 c21 0 38 1 38 3 0 1 13
97 30 212 16 116 30 213 30 217 0 4 -17 6 -37 5 l-38 -2 -16 -125 c-17 -137
-19 -136 -42 29 -8 56 -17 87 -28 94 -34 21 -46 2 -59 -100 -21 -158 -25 -161
-41 -23 l-14 125 -38 2 c-20 2 -37 0 -37 -5z"/>
<path d="M9040 8540 l0 -222 88 4 c76 2 94 7 129 30 51 34 76 86 81 170 5 76
-9 125 -46 170 -35 41 -78 58 -173 65 l-79 6 0 -223z m161 133 c47 -28 67
-103 49 -188 -13 -64 -45 -95 -96 -95 l-34 0 0 150 0 150 26 0 c14 0 39 -8 55
-17z"/>
<path d="M7445 8643 c-67 -18 -107 -79 -108 -165 0 -66 16 -97 73 -135 56 -39
169 -28 208 20 9 11 8 18 -7 31 -18 16 -22 16 -50 2 -44 -23 -84 -20 -115 9
-51 47 -38 55 85 55 l111 0 -7 47 c-9 60 -28 98 -60 119 -27 17 -96 27 -130
17z"/>
<path d="M9690 8631 c-45 -24 -71 -59 -80 -110 -21 -117 45 -201 160 -201 51
0 96 16 118 43 9 11 8 18 -7 31 -18 16 -22 16 -50 2 -44 -23 -84 -20 -115 9
-51 47 -38 55 85 55 l111 0 -7 48 c-9 63 -33 103 -75 124 -45 23 -97 23 -140
-1z"/>
<path d="M10820 8631 c-46 -24 -70 -59 -80 -113 -22 -115 46 -198 160 -198 51
0 96 16 118 43 9 11 8 18 -7 31 -18 16 -22 16 -50 2 -37 -20 -64 -20 -100 -1
-26 13 -41 33 -41 56 0 5 50 9 111 9 l112 0 -7 47 c-8 62 -34 104 -76 125 -45
23 -97 23 -140 -1z"/>
<path d="M11949 8629 c-44 -26 -67 -63 -75 -122 -15 -108 50 -189 152 -189 91
0 146 61 146 162 0 99 -50 159 -139 167 -36 3 -57 -1 -84 -18z m125 -71 c24
-34 21 -119 -5 -152 -37 -47 -92 -29 -109 36 -12 44 -7 80 16 116 20 31 77 31
98 0z"/>
<path d="M12565 8634 c-19 -10 -31 -11 -33 -5 -2 6 -21 11 -43 11 l-39 0 0
-220 0 -220 45 0 45 0 0 70 c0 64 9 86 25 60 3 -5 26 -10 49 -10 80 0 126 61
126 165 0 72 -20 119 -62 145 -40 24 -73 25 -113 4z m61 -62 c39 -25 46 -124
13 -166 -22 -28 -48 -33 -80 -16 -16 9 -19 22 -19 88 0 47 5 83 12 90 13 13
57 16 74 4z"/>
<path d="M13125 8643 c-67 -18 -107 -79 -108 -165 0 -66 16 -97 73 -135 56
-39 169 -28 208 20 9 11 8 18 -7 31 -18 16 -22 16 -50 2 -44 -23 -84 -20 -115
9 -51 47 -38 55 85 55 l111 0 -7 47 c-9 60 -28 98 -60 119 -27 17 -96 27 -130
17z"/>
<path d="M13756 8625 c-37 -25 -38 -25 -43 -5 -4 15 -14 20 -39 20 l-34 0 0
-160 0 -160 40 0 40 0 0 103 c0 127 10 142 96 141 48 0 55 3 60 22 11 44 1 59
-41 62 -31 2 -50 -4 -79 -23z"/>
<path d="M10170 8633 c0 -5 26 -77 57 -161 l58 -152 40 2 39 3 58 150 c31 83
57 154 58 158 0 5 -19 7 -41 5 l-42 -3 -36 -118 -36 -118 -38 120 -38 121 -39
0 c-22 0 -40 -3 -40 -7z"/>
</g>
</svg>
