<?xml version="1.0" standalone="no"?>
<!DOCTYPE svg PUBLIC "-//W3C//DTD SVG 20010904//EN"
 "http://www.w3.org/TR/2001/REC-SVG-20010904/DTD/svg10.dtd">
<svg version="1.0" xmlns="http://www.w3.org/2000/svg"
 width="2048.000000pt" height="2731.000000pt" viewBox="0 0 2048.000000 2731.000000"
 preserveAspectRatio="xMidYMid meet">
<metadata>
Created by potrace 1.15, written by Peter Selinger 2001-2017
</metadata>
<g transform="translate(0.000000,2731.000000) scale(0.100000,-0.100000)"
fill="#000000" stroke="none">
<path d="M7030 15765 l0 -3215 3210 0 3210 0 0 3215 0 3215 -3210 0 -3210 0 0
-3215z m6400 0 l0 -3185 -3190 0 -3190 0 0 3185 0 3185 3190 0 3190 0 0 -3185z"/>
<path d="M7750 15785 l0 -2485 2490 0 2490 0 0 2485 0 2485 -2490 0 -2490 0 0
-2485z m4900 0 l0 -2405 -2410 0 -2410 0 0 2405 0 2405 2410 0 2410 0 0 -2405z"/>
<path d="M9220 15800 l0 -1150 270 0 270 0 0 530 c0 292 3 530 8 529 4 0 198
-238 432 -529 l425 -529 362 -1 363 0 -526 622 -525 621 44 46 c125 130 937
1002 937 1006 0 3 -154 5 -342 5 l-343 0 -408 -465 c-225 -256 -413 -465 -418
-465 -5 0 -9 187 -9 465 l0 465 -270 0 -270 0 0 -1150z"/>
<path d="M7920 10955 l0 -345 138 0 c159 0 197 8 238 51 l29 30 3 159 c3 131
1 164 -13 190 -26 50 -69 70 -153 70 -64 0 -76 -3 -97 -24 l-24 -24 -3 116 -3
117 -57 3 -58 3 0 -346z m268 39 c20 -14 22 -23 22 -125 0 -146 -2 -149 -95
-149 l-75 0 0 123 c0 67 4 127 8 133 23 35 102 45 140 18z"/>
<path d="M11692 10958 l3 -343 58 -3 57 -3 0 346 0 345 -60 0 -60 0 2 -342z"/>
<path d="M6440 11219 c0 -21 97 -575 105 -596 3 -9 30 -13 89 -13 80 0 86 1
91 23 3 12 25 121 49 242 24 121 46 213 49 205 3 -8 25 -114 47 -235 23 -121
44 -223 47 -227 2 -5 40 -8 84 -8 73 0 80 2 89 23 9 20 110 568 110 595 0 8
-22 12 -70 12 l-69 0 -6 -32 c-3 -18 -16 -129 -30 -247 -13 -118 -26 -216 -29
-218 -7 -7 -12 17 -56 247 -22 118 -43 223 -46 233 -5 15 -16 17 -77 15 l-72
-3 -49 -250 c-36 -184 -51 -243 -57 -225 -4 14 -17 111 -29 215 -12 105 -24
207 -27 228 l-6 37 -68 0 c-63 0 -69 -2 -69 -21z"/>
<path d="M8828 10948 c-2 -161 -2 -304 0 -316 l4 -24 163 4 c147 3 167 5 192
24 57 42 63 69 63 287 0 214 -5 241 -54 287 -27 24 -32 25 -196 28 l-169 3 -3
-293z m283 171 c19 -19 20 -30 17 -200 -2 -147 -6 -182 -18 -189 -8 -5 -48
-10 -87 -10 l-73 0 0 210 0 210 70 0 c57 0 74 -4 91 -21z"/>
<path d="M7413 11096 c-18 -8 -42 -30 -53 -48 -19 -30 -20 -46 -18 -195 3
-156 4 -162 28 -189 43 -46 77 -54 224 -54 l136 0 6 26 c4 15 3 39 -2 53 -9
26 -10 26 -129 29 -66 1 -125 7 -132 14 -7 6 -13 26 -13 44 l0 33 138 3 137 3
0 95 c0 105 -11 139 -58 174 -24 18 -45 21 -130 24 -72 1 -111 -2 -134 -12z
m189 -104 c6 -6 12 -31 12 -54 l1 -43 -77 -3 -78 -3 0 43 c0 46 7 62 30 71 22
9 100 1 112 -11z"/>
<path d="M9503 11096 c-18 -8 -42 -30 -53 -48 -19 -30 -20 -46 -18 -195 3
-156 4 -162 28 -189 43 -46 77 -54 224 -54 l136 0 6 26 c4 15 3 39 -2 53 -9
26 -10 26 -129 29 -66 1 -125 7 -132 14 -7 6 -13 26 -13 44 l0 33 138 3 137 3
0 95 c0 105 -11 139 -58 174 -24 18 -45 21 -130 24 -72 1 -111 -2 -134 -12z
m189 -104 c6 -6 12 -31 12 -54 l1 -43 -77 -3 -78 -3 0 43 c0 46 7 62 30 71 22
9 100 1 112 -11z"/>
<path d="M9970 11098 c0 -24 122 -464 132 -476 8 -9 34 -12 87 -10 l75 3 63
230 c34 127 63 238 63 248 0 14 -9 17 -55 17 -42 0 -56 -4 -63 -17 -5 -10 -26
-98 -47 -196 -22 -97 -42 -174 -46 -170 -4 5 -16 51 -27 103 -12 52 -31 137
-42 188 l-22 92 -59 0 c-39 0 -59 -4 -59 -12z"/>
<path d="M10613 11096 c-18 -8 -42 -30 -53 -48 -19 -30 -20 -46 -18 -195 3
-156 4 -162 28 -189 43 -46 77 -54 224 -54 l136 0 6 26 c4 15 3 39 -2 53 -9
26 -10 26 -129 29 -66 1 -125 7 -132 14 -7 6 -13 26 -13 44 l0 33 138 3 137 3
0 95 c0 105 -11 139 -58 174 -24 18 -45 21 -130 24 -72 1 -111 -2 -134 -12z
m189 -104 c6 -6 12 -31 12 -54 l1 -43 -77 -3 -78 -3 0 43 c0 46 7 62 30 71 22
9 100 1 112 -11z"/>
<path d="M11183 11096 c-18 -8 -42 -30 -53 -48 -19 -30 -20 -46 -18 -195 3
-156 4 -162 28 -189 43 -46 77 -54 224 -54 l136 0 6 26 c4 15 3 39 -2 53 -9
26 -10 26 -129 29 -66 1 -125 7 -132 14 -7 6 -13 26 -13 44 l0 33 138 3 137 3
0 95 c0 105 -11 139 -58 174 -24 18 -45 21 -130 24 -72 1 -111 -2 -134 -12z
m189 -104 c6 -6 12 -31 12 -54 l1 -43 -77 -3 -78 -3 0 43 c0 46 7 62 30 71 22
9 100 1 112 -11z"/>
<path d="M12073 11095 c-18 -8 -42 -29 -53 -47 -19 -30 -20 -46 -18 -195 3
-156 4 -162 28 -189 38 -41 80 -54 172 -54 63 0 92 5 125 21 69 33 78 59 78
229 0 165 -11 200 -75 232 -44 23 -208 24 -257 3z m200 -104 c18 -18 21 -209
5 -241 -12 -22 -21 -25 -72 -28 -84 -4 -86 -1 -86 137 0 118 3 133 30 144 23
10 110 1 123 -12z"/>
<path d="M12590 10795 l0 -315 60 0 60 0 0 92 0 91 26 -24 c23 -21 35 -24 102
-24 59 0 84 5 106 20 47 32 56 68 56 232 0 165 -10 197 -69 228 -60 30 -209
11 -212 -28 -1 -6 -4 -1 -8 13 -6 22 -13 25 -64 28 l-57 3 0 -316z m275 195
c18 -15 21 -219 5 -251 -9 -15 -22 -19 -70 -19 -82 0 -90 14 -90 146 0 104 6
120 50 137 22 9 89 1 105 -13z"/>
<path d="M13253 11096 c-18 -8 -42 -30 -53 -48 -19 -30 -20 -46 -18 -195 3
-156 4 -162 28 -189 43 -46 77 -54 224 -54 l136 0 6 26 c4 15 3 39 -2 53 -9
26 -10 26 -129 29 -66 1 -125 7 -132 14 -7 6 -13 26 -13 44 l0 33 138 3 137 3
0 95 c0 105 -11 139 -58 174 -24 18 -45 21 -130 24 -72 1 -111 -2 -134 -12z
m189 -104 c6 -6 12 -31 12 -54 l1 -43 -77 -3 -78 -3 0 43 c0 46 7 62 30 71 22
9 100 1 112 -11z"/>
<path d="M13760 10860 l0 -251 58 3 57 3 3 176 c3 204 5 208 94 217 29 3 56 9
59 14 4 7 4 40 0 81 -1 4 -19 7 -41 7 -45 0 -99 -23 -101 -43 -1 -6 -4 -1 -8
13 -6 22 -13 25 -64 28 l-57 3 0 -251z"/>
</g>
</svg>
