<?xml version="1.0" encoding="utf-8"?><!DOCTYPE svg PUBLIC "-//W3C//DTD SVG 1.1//EN" "http://www.w3.org/Graphics/SVG/1.1/DTD/svg11.dtd">

<svg version="1.1" id="Contours" xmlns="http://www.w3.org/2000/svg" x="0px" y="0px" width="742.266235px" height="742.266235px" viewBox="0.000000 -0.000012 742.266235 782.885925" fill="none">
  <!-- outer line -->
  <path class="selected"  fill="#fff" opacity="1.000000" stroke="none" stroke-linecap="butt"
   	d="M52.084843 0.022399 C263.747239 0.014933 475.409636 0.007466 687.072032 0.000000 C689.463604 -0.000084 692.110033 0.096342 693.842903 1.744607 C695.689667 3.501224 695.813593 6.354995 695.813630 8.903766 C695.816172 216.508090 695.818723 424.112414 695.821274 631.716737 C695.821310 634.639307 695.754041 637.780134 694.036364 640.144663 C691.459398 643.692067 686.388618 644.022390 682.004006 644.022361 C475.417540 644.020771 268.831076 644.019188 62.244612 644.017606 C59.208635 644.017582 55.806834 643.868338 53.721256 641.662093 C51.778096 639.606507 51.667072 636.478139 51.668928 633.649482 C51.807567 422.440454 51.946205 211.231427 52.084843 0.022399 M55.807692 4.520943 C55.808307 216.267750 55.808922 428.014556 55.809537 639.761363 C264.893086 639.890841 473.976635 640.020320 683.060185 640.149798 C685.510797 640.151316 688.238097 640.044562 689.973137 638.313915 C691.712464 636.578977 691.821886 633.843741 691.821817 631.387065 C691.815432 422.432465 691.809060 213.477866 691.802688 4.523268 C479.805493 3.673243 267.804893 3.672468 55.807692 4.520943 z">
  </path>
    <!-- inner line -->
    <path class="selected"  fill="#0038ff" opacity="1.000000" stroke="none"
     	d="M619.557510 71.646020 C621.660275 73.491211 621.816832 76.653981 621.816855 79.451542 C621.817971 239.208311 621.819093 398.965079 621.820215 558.721846 C621.820234 561.445183 621.674952 564.513774 619.652963 566.338088 C617.879105 567.938519 615.251367 568.025428 612.862237 568.025381 C450.372026 568.021997 287.881815 568.018618 125.391605 568.015239 C122.773371 402.029526 122.751984 236.002854 125.327457 70.016472 C287.821679 70.011650 450.315901 70.006829 612.810123 70.002007 C615.179228 70.001937 617.776790 70.083426 619.557511 71.646017 M613.578183 78.022614 C455.996332 78.015037 298.414482 78.007460 140.832632 77.999884 C138.022432 77.999749 134.794952 78.193703 133.080377 80.420237 C131.850185 82.017769 131.797432 84.197518 131.797473 86.213819 C131.800869 241.616052 131.804259 397.018285 131.807650 552.420517 C131.807695 554.473320 131.881615 556.729671 133.252464 558.257669 C134.827860 560.013663 137.488438 560.139057 139.847545 560.137243 C297.871504 560.015723 455.895462 559.894204 613.919421 559.772684 C613.805675 399.189327 613.691929 238.605971 613.578183 78.022614 z">
    </path>

    <path class="selected"  fill="#fff" opacity="1.000000" stroke="none"
     	d="M231.900503 176.180854 C292.917749 176.098874 353.934995 176.016894 414.952241 175.934914 C416.000665 191.757764 416.252062 207.633398 415.705158 223.481510 C394.431226 223.866465 373.157294 224.251420 351.883362 224.636375 C351.516461 256.719317 351.680413 288.808329 352.375129 320.885847 C377.162633 292.483409 401.950138 264.080972 426.737643 235.678534 C430.768412 231.059930 435.556762 226.070822 441.686074 225.970133 C462.392592 225.629981 483.109353 225.913635 503.798796 226.820582 C472.094322 260.634189 440.389848 294.447795 408.685373 328.261402 C407.574985 329.445659 406.395538 330.794166 406.383957 332.417524 C406.372928 333.964023 407.428610 335.287335 408.429199 336.466571 C442.151074 376.209110 475.872947 415.951650 509.594820 455.694190 C489.679396 455.884421 469.763972 456.074651 449.848549 456.264881 C443.996912 456.320775 437.262187 455.972959 433.676282 451.348453 C407.215148 417.223216 380.099148 383.605774 352.348247 350.520871 C351.675970 385.425199 351.528427 420.339632 351.905684 455.248395 C334.075030 456.183845 316.207276 456.411905 298.358555 455.931859 C295.649714 378.933461 294.892351 301.866418 296.087437 224.829655 C274.922528 223.825487 253.721041 223.592488 232.539175 224.131273 C231.642363 208.166671 231.429212 192.163679 231.900503 176.180854 z">
    </path>

</svg>
