<?xml version="1.0" encoding="utf-8"?><!DOCTYPE svg PUBLIC "-//W3C//DTD SVG 1.1//EN" "http://www.w3.org/Graphics/SVG/1.1/DTD/svg11.dtd">
<svg version="1.1" id="Contours" xmlns="http://www.w3.org/2000/svg" xmlns:xlink="http://www.w3.org/1999/xlink" x="0px" y="0px" width="805.568298px" height="805.568298px" viewBox="-0.000026 0.000004 805.568298 924.828430" enable-background="new 0 0 805.568298 805.568298" xml:space="preserve" stroke="black" fill="none" stroke-linecap='round' stroke-linejoin='round'>
  <path class="selected"  fill="#000000" opacity="1.000000" stroke="none"
 	d="
M805.568317 400.769412 C670.793557 535.544932 536.018797 670.320452 401.244037 805.095972 C269.003583 673.184200 136.763128 541.272428 4.522674 409.360656 C2.321857 407.165309 -0.032915 404.612851 0.000348 401.504469 C0.032669 398.484611 2.312431 396.022594 4.447785 393.886981 C133.884988 264.434121 263.322189 134.981260 392.759390 5.528398 C395.590030 2.697416 398.990533 -0.351780 402.975369 0.033011 C406.095993 0.334371 408.574730 2.684872 410.788568 4.904785 C542.381813 136.859667 673.975065 268.814539 805.568317 400.769412 M401.373064 799.259714 C534.116744 666.207157 666.860425 533.154599 799.604106 400.102042 C667.043209 267.540999 534.482312 134.979958 401.921415 2.418916 C268.883501 135.456596 135.845586 268.494277 2.807671 401.531958 C135.662802 534.107876 268.517933 666.683795 401.373064 799.259713 z"/><path class="selected"  fill="#000000" opacity="1.000000" stroke="none"
 	d="
M61.513132 892.638600 C64.115311 887.866425 65.345457 882.356043 65.019884 876.930272 C64.831489 873.790607 64.765025 869.605577 67.775063 868.693074 C70.125075 867.980660 72.464252 870.269538 72.970537 872.672404 C73.476821 875.075270 72.793010 877.546514 72.581652 879.993025 C72.197001 884.445435 73.467441 889.057023 76.240740 892.561410 C76.841849 886.944419 77.442957 881.327429 78.044066 875.710439 C78.296272 873.353730 78.634292 870.806996 80.290366 869.111384 C81.946441 867.415771 85.394653 867.399902 86.245141 869.612220 C86.572132 870.462799 86.444355 871.411778 86.311902 872.313368 C84.634398 883.731937 82.956893 895.150507 81.279388 906.569076 C80.966327 908.700049 80.393505 911.185075 78.411068 912.027095 C75.304940 913.346392 72.576828 909.441369 71.774347 906.163473 C70.499572 900.956396 70.307599 895.486810 71.214167 890.203172 C71.508755 888.486257 68.576871 887.926744 67.499345 889.295509 C66.421819 890.664274 66.687833 892.608417 66.855606 894.342323 C67.323754 899.180489 66.571098 904.131965 64.686451 908.612491 C63.862227 910.571988 62.206836 912.752553 60.132142 912.289285 C58.545142 911.934916 57.726333 910.202722 57.239644 908.651181 C55.836556 904.178201 55.282578 899.490331 54.735298 894.834509 C53.808086 886.946529 52.880873 879.058549 51.953661 871.170570 C51.346392 868.848157 55.001411 867.389410 56.931033 868.817323 C58.860655 870.245235 59.283735 872.909292 59.553274 875.294606 C60.206560 881.075938 60.859846 886.857269 61.513132 892.638600 z"/><path class="selected"  fill="#000000" opacity="1.000000" stroke="none"
 	d="M309.640299 900.586020 C308.899164 902.502238 307.958666 904.361208 306.650051 905.945095 C302.223572 911.302698 294.553169 912.551785 287.603522 912.557533 C285.431924 912.559329 282.920662 912.299232 281.710615 910.496005 C280.952923 909.366883 280.924915 907.917096 280.922998 906.557312 C280.908066 895.964699 280.893133 885.372085 280.878200 874.779472 C280.876515 873.584198 280.895598 872.314172 281.541276 871.308299 C282.048973 870.517388 282.881506 869.997015 283.721437 869.575339 C291.490238 865.675128 301.694958 868.836755 306.943983 875.765942 C312.193008 882.695130 312.776063 892.478438 309.640298 900.586019 M288.673787 899.945047 C288.599995 904.263337 294.975396 906.147971 298.459442 903.595619 C301.943488 901.043268 302.902665 896.285419 303.091518 891.970630 C303.396075 885.012255 301.049103 876.436814 294.242489 874.959755 C292.692790 874.623467 290.854652 874.823287 289.868359 876.065009 C289.097429 877.035594 289.042393 878.374235 289.021215 879.613557 C288.905406 886.390721 288.789596 893.167884 288.673787 899.945047 z"/><path class="selected"  fill="#000000" opacity="1.000000" stroke="none"
 	d="
M172.072686 865.760357 C174.935668 865.584089 177.229157 868.494476 177.446973 871.354597 C177.664788 874.214718 176.394415 876.956009 175.124803 879.528133 C175.951635 880.408679 176.778466 881.289224 177.605297 882.169769 C181.365939 877.643097 189.229832 878.647335 193.111184 883.070942 C196.992537 887.494548 197.536750 894.013655 196.406728 899.789142 C195.718010 903.309146 194.418665 906.826009 191.933513 909.412278 C189.448360 911.998546 185.599151 913.477647 182.166891 912.436321 C179.712092 911.691552 176.899069 909.821629 174.921016 911.455039 C172.787786 913.216592 169.247664 911.977312 167.893662 909.564758 C166.539660 907.152204 166.897690 904.123178 167.842877 901.523109 C168.623840 899.374795 169.167665 896.038778 166.916660 895.641118 C168.923071 894.414996 168.494729 891.445161 167.959581 889.155471 C166.837387 884.354084 166.379892 879.397826 166.604210 874.472147 C166.775741 870.705600 168.309361 865.992057 172.072686 865.760357 M176.759615 893.198966 C176.814631 895.964814 176.869647 898.730663 176.924663 901.496511 C176.940806 902.308107 176.983840 903.192923 177.517485 903.804619 C178.652521 905.105663 181.471603 904.625759 181.770682 906.326222 C186.779279 904.347838 189.959369 898.559215 188.942900 893.270847 C188.426273 890.582984 186.794853 887.979928 184.269590 886.924202 C181.744326 885.868476 178.366822 886.818968 177.252287 889.318832 C176.716812 890.519878 176.733463 891.884221 176.759614 893.198966 z"/><path class="selected"  fill="#000000" opacity="1.000000" stroke="none"
 	d="
M628.776410 924.603308 C626.946317 925.362360 624.782557 924.099306 623.849887 922.351298 C622.917217 920.603291 622.897551 918.529544 622.899811 916.548283 C622.912464 905.456779 622.925117 894.365277 622.937770 883.273774 C622.939585 881.683178 623.879065 879.426892 625.322900 880.094230 C630.507069 882.490355 636.527660 877.872692 642.133370 878.964947 C648.466965 880.199024 651.150693 887.845392 651.331020 894.295574 C651.471566 899.322798 650.685319 904.677992 647.444742 908.523950 C644.204165 912.369908 637.920585 913.938965 634.022262 910.761574 C631.340074 911.108523 630.731159 914.710198 630.994369 917.401893 C631.257578 920.093588 631.274588 923.567159 628.776409 924.603307 M633.851109 905.213346 C636.860486 907.107500 641.089987 904.794431 642.454358 901.510736 C643.818730 898.227041 643.151643 894.489279 642.373648 891.019569 C642.091726 889.762251 641.774689 888.458994 640.958205 887.462160 C638.808434 884.837535 634.197412 885.878493 632.251110 888.657356 C630.304807 891.436218 630.337993 895.117736 630.734068 898.487201 C631.032822 901.028733 631.685367 903.850190 633.851108 905.213346 z"/><path class="selected"  fill="#000000" opacity="1.000000" stroke="none"
 	d="
M141.157085 891.288651 C141.649993 894.647485 139.834949 899.021195 136.447437 898.798731 C132.464249 898.537145 128.481062 898.275561 124.497876 898.013977 C121.813430 897.837683 120.580271 901.920938 122.316286 903.976073 C124.052301 906.031207 127.166608 906.238295 129.802658 905.701109 C132.438707 905.163923 134.987243 904.048067 137.677448 904.037171 C139.392909 904.030223 141.574689 905.758348 140.400395 907.008902 C134.142089 913.673626 122.397861 914.185217 115.715172 907.946099 C109.032483 901.706981 108.829106 889.771053 115.428953 883.444367 C119.415131 879.623172 125.458865 878.008889 130.761121 879.550718 C136.063377 881.092547 140.355338 885.825286 141.157084 891.288651 M127.785307 886.505802 C126.184935 886.412781 124.500862 886.335705 123.063873 887.046272 C121.626885 887.756840 120.589899 889.547171 121.273119 890.997361 C121.905899 892.340493 123.590324 892.753513 125.062578 892.945555 C126.727334 893.162705 128.476612 893.289521 130.033584 892.661512 C131.590556 892.033503 132.877269 890.434009 132.611190 888.776372 C132.345111 887.118736 130.042140 886.025093 128.834986 887.191856 z"/><path class="selected"  fill="#000000" opacity="1.000000" stroke="none"
 	d="
M478.592824 885.484335 C479.564204 887.228820 480.101617 889.175523 480.630460 891.100915 C481.446235 894.070956 481.139857 898.628343 478.060350 898.571186 C473.376275 898.484245 468.692201 898.397305 464.008127 898.310365 C462.966150 898.291025 461.703647 898.396413 461.232632 899.326055 C461.007415 899.770564 461.035716 900.302069 461.144672 900.788319 C461.833609 903.862912 465.329178 905.527072 468.479732 905.568993 C471.630287 905.610913 474.679199 904.508361 477.810667 904.159567 C479.014532 904.025477 480.625532 904.313432 480.778657 905.515023 C480.864488 906.188538 480.401929 906.799640 479.937886 907.295275 C473.530689 914.138666 461.226017 914.081097 454.883137 907.178051 C448.540257 900.275006 449.521754 888.009407 456.881660 882.202863 C463.414257 877.049019 474.544778 878.214517 478.592824 885.484335 M472.017286 888.336602 C469.492477 885.729784 464.880839 885.552355 462.163201 887.957474 C461.133478 888.868781 460.378077 890.480067 461.206327 891.577705 C461.845038 892.424160 463.067292 892.495891 464.127679 892.491807 C466.036158 892.484455 467.944636 892.477104 469.853114 892.469753 C470.960468 892.465488 472.270935 892.351114 472.832135 891.396490 C473.407757 890.417335 472.807495 889.152478 472.017286 888.336602 z"/><path class="selected"  fill="#000000" opacity="1.000000" stroke="none"
 	d="
M362.853507 904.272430 C364.724026 904.029908 367.340070 904.750309 367.142335 906.626091 C367.061759 907.390453 366.483748 907.999881 365.904112 908.504617 C358.833542 914.661519 346.541828 913.212588 341.096706 905.580350 C339.131228 902.825410 338.025857 899.484888 337.843516 896.105605 C337.603445 891.656415 339.016615 887.068589 342.012389 883.770367 C346.060829 879.313203 352.920618 877.668890 358.549797 879.806300 C364.178976 881.943709 368.218654 887.726569 368.288553 893.747473 C368.336513 897.878631 362.666536 899.167873 358.572397 898.613987 C354.478257 898.060100 349.188024 897.582517 347.335950 901.275563 C348.162837 904.059106 351.350013 905.506327 354.253300 905.559031 C357.156587 905.611735 359.973845 904.645792 362.853507 904.272430 M346.711757 889.917550 C346.507208 892.105856 349.594790 892.783943 351.786703 892.622557 C354.744448 892.404786 357.702193 892.187015 360.659937 891.969243 C359.101667 887.114011 352.341048 884.866340 348.185908 887.822062 C347.467553 888.333057 346.793804 889.039815 346.711759 889.917550 z"/><path class="selected"  fill="#000000" opacity="1.000000" stroke="none"
 	d="
M708.580362 896.662101 C708.339266 897.505343 707.812580 898.472645 706.935562 898.467625 C701.801536 898.438230 696.667510 898.408836 691.533484 898.379442 C690.959500 898.376155 690.336347 898.388931 689.886243 898.745125 C689.522740 899.032787 689.342817 899.496411 689.259667 899.952448 C688.654514 903.271376 692.458432 905.883773 695.831927 905.915736 C699.205422 905.947700 702.406762 904.431605 705.763545 904.094706 C707.004727 903.970136 708.643205 904.326136 708.786180 905.565333 C708.868101 906.275359 708.375400 906.913790 707.880683 907.429641 C702.371881 913.173779 692.639883 914.231929 686.025296 909.805954 C679.410710 905.379979 676.676309 895.980270 679.884587 888.696798 C682.898691 881.854140 691.042199 877.518939 698.284670 879.377271 C705.527142 881.235603 710.635813 889.473087 708.580362 896.662101 M697.494669 892.521951 C698.422835 892.514288 699.432679 892.478171 700.145606 891.883794 C701.298466 890.922642 700.987021 888.934525 699.885297 887.915161 C698.783572 886.895797 697.200088 886.615701 695.704969 886.483349 C693.658583 886.302196 691.340366 886.416497 689.931758 887.911934 C688.523151 889.407371 689.218076 892.590284 691.272394 892.573323 C693.346486 892.556199 695.420578 892.539075 697.494669 892.521951 z"/><path class="selected"  fill="#000000" opacity="1.000000" stroke="none"
 	d="
M567.741578 905.918792 C564.371433 901.256052 563.507178 894.887147 565.512872 889.494910 C567.518566 884.102673 572.334847 879.846698 577.932908 878.519769 C580.299572 877.958787 582.813885 878.503404 585.028398 879.509248 C593.700581 883.448199 597.837727 895.109715 593.586889 903.633355 C591.024097 908.772184 585.609084 912.571960 579.866977 912.511535 C575.094720 912.461316 570.537268 909.786748 567.741579 905.918792 M577.047373 886.837832 C576.397993 887.212325 575.843569 887.732733 575.346023 888.293435 C572.872379 891.081066 571.751465 895.084656 572.665027 898.697855 C573.578588 902.311053 576.600265 905.369669 580.256719 906.090876 C585.575038 903.726090 588.401798 896.898074 586.311302 891.466080 C584.901213 887.802070 580.448339 884.876518 577.047374 886.837832 z"/><path class="selected"  fill="#000000" opacity="1.000000" stroke="none"
 	d="
M517.629077 872.485068 C515.452971 871.806612 512.583522 873.166125 511.068322 871.463212 C509.905036 870.155812 510.711900 867.917393 512.203795 867.002636 C513.695690 866.087879 515.559044 866.116369 517.308123 866.173407 C520.214197 866.268175 523.120272 866.362943 526.026346 866.457712 C527.312151 866.499642 529.013683 866.943043 529.004278 868.229497 C528.931628 878.163851 528.858980 888.098204 528.786332 898.032557 C528.773229 899.824311 528.785521 901.715945 529.692792 903.261070 C530.600064 904.806195 532.741911 905.776286 534.245665 904.801977 C535.988756 903.672596 538.537903 905.396095 538.661144 907.469421 C538.784384 909.542747 537.119505 911.384926 535.189425 912.152169 C533.259346 912.919412 531.112844 912.850091 529.037429 912.769314 C524.013163 912.573764 518.988896 912.378214 513.964630 912.182664 C513.146693 912.150829 512.284171 912.105503 511.596921 911.660843 C509.929013 910.581683 510.410884 907.841904 511.898945 906.525781 C513.387006 905.209657 515.442143 904.805341 517.278088 904.046518 C519.114034 903.287695 520.971800 901.808194 520.972123 899.821612 C520.973195 893.229112 520.974267 886.636612 520.975338 880.044113 C520.975820 877.082055 520.456884 873.366710 517.629077 872.485069 z"/><path class="selected"  fill="#000000" opacity="1.000000" stroke="none"
 	d="
M409.865002 903.277913 C411.675772 897.765490 413.486542 892.253067 415.297312 886.740643 C416.136254 884.186701 417.086005 881.472612 419.228079 879.848431 C421.370153 878.224250 425.084518 878.434039 426.145070 880.904196 C421.831473 890.512942 417.907920 900.296779 414.387315 910.223533 C413.518065 912.674483 409.941150 913.102821 407.776899 911.661026 C405.612648 910.219232 404.537897 907.652805 403.579967 905.235136 C400.773512 898.152057 397.967056 891.068979 395.160599 883.985902 C394.127146 881.377619 398.058267 879.097281 400.562948 880.361297 C403.067629 881.625312 404.117546 884.584800 404.942062 887.266467 C406.583042 892.603616 408.224022 897.940764 409.865002 903.277913 z"/><path class="selected"  fill="#000000" opacity="1.000000" stroke="none"
 	d="
M761.697173 888.303508 C761.621717 887.081116 759.978289 886.734864 758.760144 886.861589 C755.371836 887.214077 751.901590 888.690458 750.085098 891.572337 C747.497225 895.678018 748.987288 900.976141 749.410770 905.810846 C749.654839 908.597269 748.901844 912.182898 746.154933 912.710346 C744.350303 913.056861 742.560458 911.728964 741.760246 910.074751 C740.960034 908.420538 740.919136 906.515096 740.893580 904.677677 C740.816786 899.156452 740.739992 893.635228 740.663198 888.114003 C740.631477 885.833381 740.652753 883.375663 741.989139 881.527335 C743.325525 879.679008 746.514005 879.064379 747.793987 880.952206 C748.956688 882.667057 751.615540 882.403683 753.426759 881.397665 C755.237979 880.391647 756.810434 878.832840 758.841883 878.425649 C761.349605 877.922988 764.101834 879.594500 764.812058 882.051515 C765.522282 884.508530 764.086331 887.390675 761.697173 888.303508 z"/><path class="selected"  fill="#000000" opacity="1.000000" stroke="none"
 	d="
M408.159561 86.529404 C512.466853 190.953223 616.774146 295.377042 721.081438 399.800862 C614.156131 505.846601 507.658582 612.323646 401.592257 719.228533 C294.394454 613.606529 188.020983 507.147894 82.484801 399.865599 C186.974200 295.363634 291.463599 190.861670 395.952998 86.359706 C397.581350 84.731157 399.441139 82.996744 401.742557 82.912060 C404.271616 82.819011 406.371039 84.738877 408.159568 86.529395 M408.336716 702.037564 C508.762577 601.594924 609.188438 501.152285 709.614300 400.709646 C606.870458 297.673466 504.126617 194.637286 401.382776 91.601106 C300.743231 191.917553 200.103685 292.233999 99.464140 392.550445 C97.648575 394.360182 95.714853 396.427034 95.615519 398.988587 C95.506111 401.809976 97.646980 404.154730 99.643482 406.151274 C198.187102 504.696916 296.730722 603.242559 395.274341 701.788202 C397.223578 703.737478 399.524441 705.829970 402.277392 705.686926 C404.689212 705.561600 406.629147 703.745425 408.336721 702.037571 z"/><path class="selected"  fill="#000000" opacity="1.000000" stroke="none"
 	d="
M280.908677 309.166594 C278.985955 307.765691 278.811317 305.013932 278.815444 302.634988 C278.827483 295.695799 278.839522 288.756610 278.851561 281.817421 C278.855560 279.512495 279.018393 276.866860 280.844402 275.460307 C282.157733 274.448663 283.949990 274.405370 285.607778 274.405516 C344.443694 274.410702 403.279609 274.415888 462.115524 274.421074 C462.495913 283.697614 462.876302 292.974154 463.256691 302.250694 C463.360880 304.791532 463.293912 307.732398 461.310870 309.324333 C459.866743 310.483640 457.853652 310.528240 456.001783 310.519487 C437.033730 310.429836 418.065678 310.340185 399.097625 310.250534 C394.150929 310.227154 392.607313 316.878671 392.639779 321.825316 C392.838341 352.075682 393.036899 382.326046 393.235456 412.576411 C417.067298 379.635696 440.899139 346.694980 464.730981 313.754265 C468.670529 308.308964 476.492717 307.917490 483.212477 308.044619 C496.270185 308.291652 509.327893 308.538686 522.385601 308.785720 C498.212707 340.298597 474.110916 371.866016 450.080473 403.487656 C448.730040 405.264690 447.315705 407.228077 447.356415 409.459638 C447.389219 411.257769 448.369690 412.883676 449.319580 414.410785 C474.505240 454.900990 499.690900 495.391196 524.876560 535.881402 C510.565642 536.347890 496.247882 536.604491 481.929438 536.651092 C477.579555 536.665250 472.401046 536.203630 470.266592 532.413406 C453.575876 502.775108 435.941701 473.668126 417.399759 445.151374 C406.654652 448.288776 398.992877 458.243050 395.584244 468.905218 C392.175611 479.567386 392.325686 490.994325 392.508537 502.186606 C392.670977 512.129409 392.833416 522.072211 392.995855 532.015013 C393.057039 535.760053 387.956522 536.876702 384.212859 536.758147 C372.447702 536.385566 360.682545 536.012984 348.917388 535.640402 C348.919523 460.783658 348.921658 385.926913 348.923793 311.070169 C327.742329 310.766963 306.560864 310.463757 285.379400 310.160551 C283.826959 310.138328 282.163525 310.080881 280.908677 309.166594 z"/></svg>
